Coordinates
version=1
nRows=18
nColumns=34
inDegrees=no

Units are S.I. units (second, meters, Newtons, ...)
If the header above contains a line with 'inDegrees', this indicates whether rotational values are in degrees (yes) or radians (no).

endheader
time	pelvis_tilt	pelvis_list	pelvis_rotation	pelvis_tx	pelvis_ty	pelvis_tz	hip_flexion_r	hip_adduction_r	hip_rotation_r	knee_angle_r	ankle_angle_r	subtalar_angle_r	mtp_angle_r	hip_flexion_l	hip_adduction_l	hip_rotation_l	knee_angle_l	ankle_angle_l	subtalar_angle_l	mtp_angle_l	lumbar_extension	lumbar_bending	lumbar_rotation	arm_flex_r	arm_add_r	arm_rot_r	elbow_flex_r	pro_sup_r	arm_flex_l	arm_add_l	arm_rot_l	elbow_flex_l	pro_sup_l
0.93	0.153756	0.0351879	0.0765518	0.95464	1.0895	-0.245623	0.327088	-0.114403	-0.225992	0.725544	0.0135438	-0.111564	-0.0919997	-0.12075	0.0170989	-0.302142	0.151744	0.227331	0.450331	-0.100158	-0.599261	-0.302667	-0.0920707	-0.165925	-0.128734	-0.0544404	0.751395	1.8863	0.129404	-0.231206	-0.362614	0.91483	1.6162
0.94	0.155344	0.0367778	0.0768786	0.966198	1.08944	-0.248129	0.322568	-0.113965	-0.231619	0.664119	0.0223402	-0.0803923	-0.0920018	-0.146256	0.025061	-0.286276	0.129231	0.225905	0.438091	-0.0999942	-0.596317	-0.29315	-0.098386	-0.163248	-0.126344	-0.0578291	0.738104	1.8831	0.14173	-0.239305	-0.35721	0.931142	1.61741
0.95	0.157046	0.039281	0.0762788	0.977879	1.089	-0.250525	0.316538	-0.113913	-0.237562	0.600958	0.0300369	-0.0434087	-0.092004	-0.172143	0.0339887	-0.268458	0.106918	0.224476	0.42225	-0.0998306	-0.593219	-0.285116	-0.103883	-0.161049	-0.124134	-0.0616854	0.725966	1.8791	0.154476	-0.248106	-0.350634	0.945651	1.61876
0.96	0.158913	0.0425991	0.0746176	0.98969	1.0882	-0.25279	0.309115	-0.114004	-0.243252	0.536528	0.0361504	-0.00178038	-0.0920061	-0.198217	0.0436445	-0.24958	0.0853759	0.223529	0.40381	-0.099667	-0.589968	-0.278562	-0.108305	-0.159421	-0.122117	-0.0660199	0.715115	1.87462	0.167664	-0.257537	-0.342837	0.958294	1.62063
0.97	0.161014	0.0465908	0.0718319	1.00163	1.08704	-0.254901	0.30041	-0.11399	-0.247954	0.471411	0.0404058	0.042957	-0.0920082	-0.22419	0.0537241	-0.230837	0.0653502	0.223676	0.38421	-0.0995034	-0.586611	-0.273413	-0.111486	-0.158399	-0.120293	-0.070807	0.7056	1.8701	0.181285	-0.26754	-0.333843	0.969051	1.62346
0.98	0.163425	0.0510812	0.0679446	1.01368	1.08556	-0.256833	0.290553	-0.113657	-0.250846	0.406352	0.0428166	0.0890346	-0.0920103	-0.249686	0.0638747	-0.213646	0.0477207	0.225609	0.365223	-0.0993398	-0.583232	-0.269533	-0.113374	-0.157948	-0.118652	-0.0759696	0.697383	1.86604	0.195288	-0.278074	-0.323749	0.977952	1.62763
0.99	0.166211	0.0558711	0.06307	1.02584	1.08377	-0.258565	0.279717	-0.112857	-0.251144	0.342297	0.0437261	0.134618	-0.0920125	-0.274255	0.073718	-0.19951	0.0334342	0.230034	0.348784	-0.0991762	-0.579946	-0.266726	-0.114042	-0.157967	-0.117182	-0.0813726	0.690352	1.86287	0.209586	-0.289118	-0.31271	0.985089	1.63331
1	0.169413	0.0607426	0.0574071	1.03808	1.08174	-0.260077	0.26815	-0.111533	-0.248286	0.280425	0.0437922	0.17799	-0.0920146	-0.297415	0.0828693	-0.189866	0.0234101	0.237577	0.336785	-0.0990126	-0.576872	-0.264748	-0.11368	-0.1583	-0.11587	-0.0868279	0.684342	1.86089	0.224052	-0.300658	-0.300926	0.990612	1.64049
1.01	0.173026	0.0654735	0.0512176	1.05039	1.07951	-0.26136	0.256197	-0.109717	-0.242112	0.222136	0.0439044	0.217722	-0.0920167	-0.318696	0.0909503	-0.185919	0.0184311	0.248681	0.330858	-0.0988491	-0.574111	-0.263316	-0.112565	-0.158756	-0.114707	-0.092111	0.679164	1.86018	0.238527	-0.312684	-0.288626	0.994723	1.64889
1.02	0.17699	0.0698464	0.0447979	1.06275	1.07715	-0.262416	0.244306	-0.107505	-0.232997	0.168982	0.0450306	0.252807	-0.0920188	-0.337701	0.0975979	-0.188476	0.0190236	0.263512	0.332154	-0.0986855	-0.571719	-0.262116	-0.111016	-0.159137	-0.113698	-0.0969883	0.674632	1.86061	0.252814	-0.325162	-0.27606	0.997663	1.65809
1.03	0.181199	0.0736401	0.0384472	1.07514	1.07472	-0.26326	0.232993	-0.105001	-0.221875	0.122523	0.0480093	0.282706	-0.0920209	-0.354171	0.102475	-0.197799	0.0253489	0.28187	0.341143	-0.0985219	-0.56969	-0.260815	-0.109337	-0.15926	-0.112856	-0.101247	0.670589	1.86187	0.266688	-0.338026	-0.263491	0.999692	1.66761
1.04	0.185508	0.0766229	0.0324381	1.08755	1.07229	-0.263917	0.222768	-0.102259	-0.210112	0.0841054	0.0533159	0.307296	-0.092023	-0.368044	0.105281	-0.213513	0.0371294	0.30315	0.357494	-0.0983583	-0.567953	-0.25907	-0.10777	-0.158983	-0.112205	-0.104724	0.666918	1.86353	0.279893	-0.35116	-0.251197	1.00107	1.67696
1.05	0.189766	0.0785563	0.0269948	1.1	1.0699	-0.264427	0.214019	-0.0992143	-0.19922	0.0546088	0.0608521	0.326692	-0.0920251	-0.379488	0.105759	-0.234601	0.0536386	0.326357	0.380071	-0.0981947	-0.566383	-0.256543	-0.106458	-0.158226	-0.111769	-0.107329	0.663551	1.86509	0.292149	-0.364395	-0.239465	1.00205	1.68579
1.06	0.193833	0.0791967	0.0222856	1.11252	1.06761	-0.264825	0.206893	-0.0956684	-0.190494	0.0342176	0.0698243	0.341022	-0.0920272	-0.388901	0.103709	-0.259529	0.0737806	0.350207	0.407097	-0.0980311	-0.56483	-0.252913	-0.105437	-0.156984	-0.11157	-0.109054	0.660468	1.8661	0.303158	-0.377513	-0.228585	1.00285	1.69389
1.07	0.197611	0.0783083	0.0184314	1.12514	1.06545	-0.265134	0.201225	-0.0913021	-0.184689	0.0223385	0.0787774	0.350249	-0.0920293	-0.396837	0.0989973	-0.286518	0.0962688	0.373294	0.436503	-0.0978674	-0.563142	-0.247902	-0.104651	-0.155325	-0.111615	-0.109976	0.657677	1.86622	0.312615	-0.390265	-0.218833	1.00364	1.70125
1.08	0.201058	0.0756972	0.0155148	1.13792	1.06347	-0.265364	0.19658	-0.0857431	-0.181915	0.0177767	0.0858381	0.354214	-0.0920314	-0.403895	0.0915552	-0.313903	0.119869	0.394304	0.466372	-0.0977038	-0.561186	-0.241303	-0.103987	-0.153378	-0.111887	-0.110236	0.655201	1.86525	0.320229	-0.402395	-0.210453	1.00455	1.70797
1.09	0.204198	0.0712475	0.0135841	1.15092	1.06169	-0.265511	0.192396	-0.0786576	-0.181719	0.0190034	0.0891034	0.352789	-0.0920335	-0.410607	0.0813875	-0.340342	0.143595	0.412161	0.495178	-0.0975402	-0.558878	-0.233004	-0.103313	-0.151305	-0.112347	-0.110025	0.653052	1.86315	0.325744	-0.413665	-0.203626	1.00562	1.71426
1.1	0.207101	0.0649613	0.0126617	1.16418	1.06013	-0.265571	0.188099	-0.0698361	-0.183239	0.0243922	0.0870369	0.346036	-0.0920356	-0.417383	0.0686138	-0.364749	0.166785	0.42605	0.521667	-0.0973766	-0.556176	-0.223013	-0.102523	-0.149278	-0.11293	-0.10955	0.651212	1.86003	0.328962	-0.423878	-0.198456	1.00688	1.72027
